<svg width="14.583496" height="12.661133" viewBox="0 0 14.5835 12.6611" fill="none" xmlns="http://www.w3.org/2000/svg" xmlns:xlink="http://www.w3.org/1999/xlink">
	<desc>
			Created with Pixso.
	</desc>
	<defs/>
	<path id="Vector" d="M0.97 2.75C0.81 3.15 0.72 3.57 0.72 4.01C0.72 4.44 0.81 4.86 0.97 5.26C1.14 5.66 1.38 6.02 1.69 6.33L7.29 11.93L12.89 6.33C13.5 5.71 13.85 4.88 13.85 4.01C13.85 3.14 13.5 2.3 12.89 1.69C12.27 1.07 11.44 0.72 10.57 0.72C9.7 0.72 8.86 1.07 8.25 1.69L7.29 2.65L6.33 1.69C6.02 1.38 5.66 1.14 5.26 0.97C4.86 0.81 4.44 0.72 4.01 0.72C3.57 0.72 3.15 0.81 2.75 0.97C2.35 1.14 1.99 1.38 1.69 1.69C1.38 1.99 1.14 2.35 0.97 2.75Z" stroke="#FFFFFF" stroke-opacity="1.000000" stroke-width="1.458333" stroke-linejoin="round"/>
</svg>
