<svg width="11.666748" height="14.583252" viewBox="0 0 11.6667 14.5833" fill="none" xmlns="http://www.w3.org/2000/svg" xmlns:xlink="http://www.w3.org/1999/xlink">
	<desc>
			Created with Pixso.
	</desc>
	<defs/>
	<path id="Vector" d="M7.89 5.7C7.34 6.25 6.6 6.56 5.83 6.56C5.05 6.56 4.31 6.25 3.77 5.7C3.22 5.16 2.91 4.41 2.91 3.64C2.91 2.87 3.22 2.13 3.77 1.58C4.31 1.03 5.05 0.72 5.83 0.72C6.6 0.72 7.34 1.03 7.89 1.58C8.44 2.13 8.75 2.87 8.75 3.64C8.75 4.41 8.44 5.16 7.89 5.7ZM2.22 10.24C1.26 11.2 0.72 12.5 0.72 13.85L10.93 13.85C10.93 12.5 10.39 11.2 9.44 10.24C8.48 9.28 7.18 8.75 5.83 8.75C4.47 8.75 3.18 9.28 2.22 10.24Z" stroke="#FFFFFF" stroke-opacity="1.000000" stroke-width="1.458333" stroke-linejoin="round"/>
</svg>
