<svg width="22.136230" height="23.399239" viewBox="0 0 22.1362 23.3992" fill="none" xmlns="http://www.w3.org/2000/svg" xmlns:xlink="http://www.w3.org/1999/xlink">
	<desc>
			Created with Pixso.
	</desc>
	<defs/>
	<path id="Vector" d="M10.19 21.42C8.7 20.74 7.02 19.49 5.28 18.34C4.29 17.68 3.35 16.96 2.63 16.01C1.89 15.04 1.82 14.16 2.39 13.28C2.92 12.45 3.85 12.08 4.99 12.32C6.14 12.55 7.25 12.59 8.42 12.31C10.36 11.84 12.13 13.19 12.21 15.16C12.25 16.25 12.87 17.04 13.48 17.86C13.96 18.5 14.26 19.19 14.05 20.01C13.62 21.71 12.51 22.21 10.19 21.42Z" fill="#FFFFFF" fill-opacity="1.000000" fill-rule="nonzero"/>
	<path id="Vector" d="M14.05 6.17C13.7 7.07 13.28 7.92 12.51 8.54C11.4 9.42 10.24 9.22 9.52 8.01C8.3 5.95 8.97 3.52 11.05 2.52C12.66 1.73 13.95 2.39 14.24 4.14C14.36 4.84 14.25 5.51 14.05 6.17Z" fill="#FFFFFF" fill-opacity="1.000000" fill-rule="nonzero"/>
	<path id="Vector" d="M13.76 8.34C14.36 7.11 15.21 5.85 16.79 5.31C18.37 4.77 19.52 5.58 19.59 7.24C19.69 9.65 17.61 11.55 15.19 11.26C13.79 11.09 13.18 9.98 13.76 8.34Z" fill="#FFFFFF" fill-opacity="1.000000" fill-rule="nonzero"/>
	<path id="Vector" d="M8.08 9.13C7.63 10.43 6.75 11.29 5.32 11.47C3.77 11.66 2.56 10.31 3.01 8.84C3.46 7.4 4.4 6.28 5.78 5.59C6.74 5.11 7.42 5.37 7.9 6.34C8.35 7.24 8.42 8.17 8.08 9.13Z" fill="#FFFFFF" fill-opacity="1.000000" fill-rule="nonzero"/>
	<path id="Vector" d="M18.75 15.65C18.43 16.51 17.82 17.53 16.71 18.13C15.65 18.71 14.82 18.37 14.45 17.21C14.04 15.91 14.16 14.63 14.84 13.45C15.44 12.43 17.24 11.94 18.28 12.44C19.12 12.84 19.34 13.96 18.75 15.65Z" fill="#FFFFFF" fill-opacity="1.000000" fill-rule="nonzero"/>
</svg>
