<svg width="56.000000" height="50.000000" viewBox="0 0 56 50" fill="none" xmlns="http://www.w3.org/2000/svg" xmlns:xlink="http://www.w3.org/1999/xlink">
	<desc>
			Created with Pixso.
	</desc>
	<defs/>
	<path id="Vector" d="M37.5 40.02C38.65 39.1 39.78 38.24 40.87 37.32C44.39 34.36 47.57 31.08 49.92 27.05C53.84 20.33 52.78 11.56 47.45 6.24C45.09 3.89 42.4 3.15 39.26 4.36C39.15 4.4 39.04 4.43 38.91 4.47C38.23 3.15 37.3 2.19 35.64 1.95C37.39 0.96 39.09 0.33 40.92 0.11C44.8 -0.35 47.89 1.23 50.46 4.01C57.05 11.12 57.83 21.7 52.4 30.13C49.47 34.68 45.64 38.38 41.43 41.68C37.42 44.83 33.13 47.55 28.59 49.85C28.31 49.99 27.84 50.06 27.58 49.92C20.03 46.05 13.09 41.32 7.33 34.97C4.64 32.01 2.26 28.81 1.09 24.9C-1.33 16.81 0.22 9.57 6.08 3.5C9.68 -0.24 14.08 -0.93 18.81 1.16C19.63 1.52 20.42 1.97 21.21 2.38C20.84 2.97 20.48 3.47 20.21 4.01C19.94 4.56 19.77 5.15 19.57 5.7C18.58 5.24 17.62 4.72 16.61 4.33C13.75 3.22 11.14 3.73 8.97 5.87C4.26 10.53 2.82 16.17 4.28 22.63C4.32 22.83 4.39 23.04 4.51 23.21C7.3 27.46 10.57 31.26 14.82 34.08C16.71 35.34 18.79 36.16 21.06 36.4C21.34 36.42 21.62 36.44 21.9 36.42C22.13 36.41 22.36 36.36 22.61 36.2C22.41 36.14 22.22 36.07 22.02 36C19.04 35 16.38 33.49 14.34 31.02C13.94 30.53 13.7 29.82 13.6 29.17C13.45 28.13 14.32 27.49 15.22 28.03C19.09 30.36 23.48 31.04 27.74 32.1C28.92 32.39 30.12 32.65 31.22 33.14C33.94 34.35 35.84 36.45 37.1 39.15C37.22 39.4 37.33 39.66 37.5 40.02Z" fill="#8187DC" fill-opacity="1.000000" fill-rule="nonzero"/>
	<path id="Vector" d="M20.2 28.24C21.79 25.6 23.55 23.28 26.04 21.61C27.85 20.41 29.64 20.4 31.37 21.72C34.57 24.16 36.66 27.42 37.93 31.22C38.29 32.29 38.4 33.47 38.47 34.61C38.51 35.12 38.17 35.65 37.95 36.35C37.55 35.84 37.3 35.51 37.04 35.19C35.16 32.89 32.8 31.42 29.91 30.76C26.93 30.08 23.98 29.28 21.03 28.52C20.78 28.46 20.55 28.36 20.2 28.24Z" fill="#8187DC" fill-opacity="1.000000" fill-rule="nonzero"/>
	<path id="Vector" d="M30.25 11.62C30.24 9.16 30.92 6.9 32.38 4.94C32.85 4.32 33.48 3.76 34.14 3.36C35.43 2.57 36.75 2.94 37.62 4.19C38.29 5.15 38.55 6.26 38.61 7.4C38.75 10.18 38.13 12.75 36.43 14.98C36 15.55 35.43 16.05 34.83 16.43C33.5 17.27 32.13 16.92 31.23 15.62C30.56 14.63 30.26 13.4 30.25 11.62Z" fill="#8187DC" fill-opacity="1.000000" fill-rule="nonzero"/>
	<path id="Vector" d="M20.3 8.86C20.29 6.92 20.51 5.58 21.12 4.33C22.26 2 24.41 1.69 26.13 3.62C27.4 5.06 27.97 6.83 28.25 8.69C28.52 10.52 28.48 12.33 27.75 14.05C27.27 15.18 26.65 16.24 25.31 16.44C23.88 16.64 22.93 15.79 22.16 14.72C20.79 12.81 20.34 10.62 20.3 8.86Z" fill="#8187DC" fill-opacity="1.000000" fill-rule="nonzero"/>
	<path id="Vector" d="M44.88 19.82C44.72 22.15 43.96 24.16 42.48 25.88C42.13 26.29 41.72 26.66 41.28 26.95C39.3 28.24 37.25 27.52 36.58 25.24C35.81 22.65 36.33 20.2 37.79 18.01C38.38 17.14 39.19 16.32 40.07 15.78C41.73 14.74 43.44 15.35 44.22 17.17C44.57 18 44.67 18.93 44.88 19.82Z" fill="#8187DC" fill-opacity="1.000000" fill-rule="nonzero"/>
	<path id="Vector" d="M21.57 20.73C21.25 21.74 21.06 22.83 20.59 23.77C19.82 25.28 18.18 25.7 16.76 24.8C14.05 23.1 12.93 20.5 13.01 17.36C13.03 16.4 13.24 15.37 13.65 14.5C14.41 12.89 15.96 12.47 17.55 13.29C19.12 14.09 20.05 15.48 20.65 17.08C21.07 18.21 21.25 19.44 21.57 20.73Z" fill="#8187DC" fill-opacity="1.000000" fill-rule="nonzero"/>
</svg>
