<svg width="24.000000" height="16.000000" viewBox="0 0 24 16" fill="none" xmlns="http://www.w3.org/2000/svg" xmlns:xlink="http://www.w3.org/1999/xlink">
	<desc>
			Created with Pixso.
	</desc>
	<defs/>
	<path id="Vector" d="M1.33 16L22.66 16C23.4 16 24 15.4 24 14.66C24 13.93 23.4 13.33 22.66 13.33L1.33 13.33C0.59 13.33 0 13.93 0 14.66C0 15.4 0.59 16 1.33 16ZM1.33 9.33L22.66 9.33C23.4 9.33 24 8.73 24 8C24 7.26 23.4 6.66 22.66 6.66L1.33 6.66C0.59 6.66 0 7.26 0 8C0 8.73 0.59 9.33 1.33 9.33ZM0 1.33C0 2.06 0.59 2.66 1.33 2.66L22.66 2.66C23.4 2.66 24 2.06 24 1.33C24 0.6 23.4 0 22.66 0L1.33 0C0.59 0 0 0.6 0 1.33Z" fill="#ADA7FF" fill-opacity="1.000000" fill-rule="nonzero"/>
</svg>
